<mxfile host="app.diagrams.net" agent="Mozilla/5.0 (X11; Linux x86_64) AppleWebKit/537.36 (KHTML, like Gecko) Chrome/129.0.0.0 Safari/537.36" version="24.7.16">
  <diagram name="PÃ¡gina-1" id="EANJmo4rDkTSEJbiqaz0">
    <mxGraphModel dx="1831" dy="1679" grid="1" gridSize="10" guides="1" tooltips="1" connect="1" arrows="1" fold="1" page="1" pageScale="1" pageWidth="827" pageHeight="1169" math="0" shadow="0">
      <root>
        <mxCell id="0" />
        <mxCell id="1" parent="0" />
        <mxCell id="tzJuCF-FU3qU-iTJl4F9-1" value="Book" style="swimlane;fontStyle=1;align=center;verticalAlign=top;childLayout=stackLayout;horizontal=1;startSize=26;horizontalStack=0;resizeParent=1;resizeParentMax=0;resizeLast=0;collapsible=1;marginBottom=0;whiteSpace=wrap;html=1;" parent="1" vertex="1">
          <mxGeometry x="-190" y="563" width="160" height="190" as="geometry" />
        </mxCell>
        <mxCell id="tzJuCF-FU3qU-iTJl4F9-2" value="title : String" style="text;strokeColor=none;fillColor=none;align=left;verticalAlign=top;spacingLeft=4;spacingRight=4;overflow=hidden;rotatable=0;points=[[0,0.5],[1,0.5]];portConstraint=eastwest;whiteSpace=wrap;html=1;" parent="tzJuCF-FU3qU-iTJl4F9-1" vertex="1">
          <mxGeometry y="26" width="160" height="26" as="geometry" />
        </mxCell>
        <mxCell id="7Pb95gC22IqxMszWxWb3-40" value="author : Author" style="text;strokeColor=none;fillColor=none;align=left;verticalAlign=top;spacingLeft=4;spacingRight=4;overflow=hidden;rotatable=0;points=[[0,0.5],[1,0.5]];portConstraint=eastwest;whiteSpace=wrap;html=1;" parent="tzJuCF-FU3qU-iTJl4F9-1" vertex="1">
          <mxGeometry y="52" width="160" height="26" as="geometry" />
        </mxCell>
        <mxCell id="7Pb95gC22IqxMszWxWb3-41" value="datePlublication : Date" style="text;strokeColor=none;fillColor=none;align=left;verticalAlign=top;spacingLeft=4;spacingRight=4;overflow=hidden;rotatable=0;points=[[0,0.5],[1,0.5]];portConstraint=eastwest;whiteSpace=wrap;html=1;" parent="tzJuCF-FU3qU-iTJl4F9-1" vertex="1">
          <mxGeometry y="78" width="160" height="26" as="geometry" />
        </mxCell>
        <mxCell id="7Pb95gC22IqxMszWxWb3-42" value="isbn : Integer" style="text;strokeColor=none;fillColor=none;align=left;verticalAlign=top;spacingLeft=4;spacingRight=4;overflow=hidden;rotatable=0;points=[[0,0.5],[1,0.5]];portConstraint=eastwest;whiteSpace=wrap;html=1;" parent="tzJuCF-FU3qU-iTJl4F9-1" vertex="1">
          <mxGeometry y="104" width="160" height="26" as="geometry" />
        </mxCell>
        <mxCell id="7Pb95gC22IqxMszWxWb3-43" value="genre : String" style="text;strokeColor=none;fillColor=none;align=left;verticalAlign=top;spacingLeft=4;spacingRight=4;overflow=hidden;rotatable=0;points=[[0,0.5],[1,0.5]];portConstraint=eastwest;whiteSpace=wrap;html=1;" parent="tzJuCF-FU3qU-iTJl4F9-1" vertex="1">
          <mxGeometry y="130" width="160" height="26" as="geometry" />
        </mxCell>
        <mxCell id="7Pb95gC22IqxMszWxWb3-44" value="quantity : Integer" style="text;strokeColor=none;fillColor=none;align=left;verticalAlign=top;spacingLeft=4;spacingRight=4;overflow=hidden;rotatable=0;points=[[0,0.5],[1,0.5]];portConstraint=eastwest;whiteSpace=wrap;html=1;" parent="tzJuCF-FU3qU-iTJl4F9-1" vertex="1">
          <mxGeometry y="156" width="160" height="26" as="geometry" />
        </mxCell>
        <mxCell id="tzJuCF-FU3qU-iTJl4F9-3" value="" style="line;strokeWidth=1;fillColor=none;align=left;verticalAlign=middle;spacingTop=-1;spacingLeft=3;spacingRight=3;rotatable=0;labelPosition=right;points=[];portConstraint=eastwest;strokeColor=inherit;" parent="tzJuCF-FU3qU-iTJl4F9-1" vertex="1">
          <mxGeometry y="182" width="160" height="8" as="geometry" />
        </mxCell>
        <mxCell id="7Pb95gC22IqxMszWxWb3-111" style="edgeStyle=orthogonalEdgeStyle;rounded=0;orthogonalLoop=1;jettySize=auto;html=1;" parent="1" source="7Pb95gC22IqxMszWxWb3-1" target="7Pb95gC22IqxMszWxWb3-105" edge="1">
          <mxGeometry relative="1" as="geometry" />
        </mxCell>
        <mxCell id="7Pb95gC22IqxMszWxWb3-1" value="Author" style="swimlane;fontStyle=1;align=center;verticalAlign=top;childLayout=stackLayout;horizontal=1;startSize=26;horizontalStack=0;resizeParent=1;resizeParentMax=0;resizeLast=0;collapsible=1;marginBottom=0;whiteSpace=wrap;html=1;" parent="1" vertex="1">
          <mxGeometry x="100" y="602" width="160" height="112" as="geometry" />
        </mxCell>
        <mxCell id="7Pb95gC22IqxMszWxWb3-54" value="dateOfBirth : Date" style="text;strokeColor=none;fillColor=none;align=left;verticalAlign=top;spacingLeft=4;spacingRight=4;overflow=hidden;rotatable=0;points=[[0,0.5],[1,0.5]];portConstraint=eastwest;whiteSpace=wrap;html=1;" parent="7Pb95gC22IqxMszWxWb3-1" vertex="1">
          <mxGeometry y="26" width="160" height="26" as="geometry" />
        </mxCell>
        <mxCell id="7Pb95gC22IqxMszWxWb3-55" value="nationality : String" style="text;strokeColor=none;fillColor=none;align=left;verticalAlign=top;spacingLeft=4;spacingRight=4;overflow=hidden;rotatable=0;points=[[0,0.5],[1,0.5]];portConstraint=eastwest;whiteSpace=wrap;html=1;" parent="7Pb95gC22IqxMszWxWb3-1" vertex="1">
          <mxGeometry y="52" width="160" height="26" as="geometry" />
        </mxCell>
        <mxCell id="7Pb95gC22IqxMszWxWb3-56" value="biography : String" style="text;strokeColor=none;fillColor=none;align=left;verticalAlign=top;spacingLeft=4;spacingRight=4;overflow=hidden;rotatable=0;points=[[0,0.5],[1,0.5]];portConstraint=eastwest;whiteSpace=wrap;html=1;" parent="7Pb95gC22IqxMszWxWb3-1" vertex="1">
          <mxGeometry y="78" width="160" height="26" as="geometry" />
        </mxCell>
        <mxCell id="7Pb95gC22IqxMszWxWb3-3" value="" style="line;strokeWidth=1;fillColor=none;align=left;verticalAlign=middle;spacingTop=-1;spacingLeft=3;spacingRight=3;rotatable=0;labelPosition=right;points=[];portConstraint=eastwest;strokeColor=inherit;" parent="7Pb95gC22IqxMszWxWb3-1" vertex="1">
          <mxGeometry y="104" width="160" height="8" as="geometry" />
        </mxCell>
        <mxCell id="7Pb95gC22IqxMszWxWb3-110" style="edgeStyle=orthogonalEdgeStyle;rounded=0;orthogonalLoop=1;jettySize=auto;html=1;" parent="1" source="7Pb95gC22IqxMszWxWb3-5" target="7Pb95gC22IqxMszWxWb3-105" edge="1">
          <mxGeometry relative="1" as="geometry" />
        </mxCell>
        <mxCell id="7Pb95gC22IqxMszWxWb3-5" value="Member" style="swimlane;fontStyle=1;align=center;verticalAlign=top;childLayout=stackLayout;horizontal=1;startSize=26;horizontalStack=0;resizeParent=1;resizeParentMax=0;resizeLast=0;collapsible=1;marginBottom=0;whiteSpace=wrap;html=1;" parent="1" vertex="1">
          <mxGeometry x="210" y="60" width="160" height="216" as="geometry" />
        </mxCell>
        <mxCell id="7Pb95gC22IqxMszWxWb3-23" value="address : String" style="text;strokeColor=none;fillColor=none;align=left;verticalAlign=top;spacingLeft=4;spacingRight=4;overflow=hidden;rotatable=0;points=[[0,0.5],[1,0.5]];portConstraint=eastwest;whiteSpace=wrap;html=1;" parent="7Pb95gC22IqxMszWxWb3-5" vertex="1">
          <mxGeometry y="26" width="160" height="26" as="geometry" />
        </mxCell>
        <mxCell id="7Pb95gC22IqxMszWxWb3-24" value="phoneNumber : Integer" style="text;strokeColor=none;fillColor=none;align=left;verticalAlign=top;spacingLeft=4;spacingRight=4;overflow=hidden;rotatable=0;points=[[0,0.5],[1,0.5]];portConstraint=eastwest;whiteSpace=wrap;html=1;" parent="7Pb95gC22IqxMszWxWb3-5" vertex="1">
          <mxGeometry y="52" width="160" height="26" as="geometry" />
        </mxCell>
        <mxCell id="7Pb95gC22IqxMszWxWb3-25" value="email : String" style="text;strokeColor=none;fillColor=none;align=left;verticalAlign=top;spacingLeft=4;spacingRight=4;overflow=hidden;rotatable=0;points=[[0,0.5],[1,0.5]];portConstraint=eastwest;whiteSpace=wrap;html=1;" parent="7Pb95gC22IqxMszWxWb3-5" vertex="1">
          <mxGeometry y="78" width="160" height="26" as="geometry" />
        </mxCell>
        <mxCell id="7Pb95gC22IqxMszWxWb3-26" value="dateAssociation : Date" style="text;strokeColor=none;fillColor=none;align=left;verticalAlign=top;spacingLeft=4;spacingRight=4;overflow=hidden;rotatable=0;points=[[0,0.5],[1,0.5]];portConstraint=eastwest;whiteSpace=wrap;html=1;" parent="7Pb95gC22IqxMszWxWb3-5" vertex="1">
          <mxGeometry y="104" width="160" height="26" as="geometry" />
        </mxCell>
        <mxCell id="7Pb95gC22IqxMszWxWb3-27" value="loan : Loan" style="text;strokeColor=none;fillColor=none;align=left;verticalAlign=top;spacingLeft=4;spacingRight=4;overflow=hidden;rotatable=0;points=[[0,0.5],[1,0.5]];portConstraint=eastwest;whiteSpace=wrap;html=1;" parent="7Pb95gC22IqxMszWxWb3-5" vertex="1">
          <mxGeometry y="130" width="160" height="26" as="geometry" />
        </mxCell>
        <mxCell id="7Pb95gC22IqxMszWxWb3-7" value="" style="line;strokeWidth=1;fillColor=none;align=left;verticalAlign=middle;spacingTop=-1;spacingLeft=3;spacingRight=3;rotatable=0;labelPosition=right;points=[];portConstraint=eastwest;strokeColor=inherit;" parent="7Pb95gC22IqxMszWxWb3-5" vertex="1">
          <mxGeometry y="156" width="160" height="8" as="geometry" />
        </mxCell>
        <mxCell id="M8pgYPbENfPe2T3QujUm-1" value="loan() : void" style="text;strokeColor=none;fillColor=none;align=left;verticalAlign=top;spacingLeft=4;spacingRight=4;overflow=hidden;rotatable=0;points=[[0,0.5],[1,0.5]];portConstraint=eastwest;whiteSpace=wrap;html=1;" parent="7Pb95gC22IqxMszWxWb3-5" vertex="1">
          <mxGeometry y="164" width="160" height="26" as="geometry" />
        </mxCell>
        <mxCell id="7Pb95gC22IqxMszWxWb3-8" value="listBooks( ) : Book" style="text;strokeColor=none;fillColor=none;align=left;verticalAlign=top;spacingLeft=4;spacingRight=4;overflow=hidden;rotatable=0;points=[[0,0.5],[1,0.5]];portConstraint=eastwest;whiteSpace=wrap;html=1;" parent="7Pb95gC22IqxMszWxWb3-5" vertex="1">
          <mxGeometry y="190" width="160" height="26" as="geometry" />
        </mxCell>
        <mxCell id="7Pb95gC22IqxMszWxWb3-9" value="Loan" style="swimlane;fontStyle=1;align=center;verticalAlign=top;childLayout=stackLayout;horizontal=1;startSize=26;horizontalStack=0;resizeParent=1;resizeParentMax=0;resizeLast=0;collapsible=1;marginBottom=0;whiteSpace=wrap;html=1;" parent="1" vertex="1">
          <mxGeometry x="-190" y="60" width="160" height="216" as="geometry" />
        </mxCell>
        <mxCell id="7Pb95gC22IqxMszWxWb3-10" value="book : Book" style="text;strokeColor=none;fillColor=none;align=left;verticalAlign=top;spacingLeft=4;spacingRight=4;overflow=hidden;rotatable=0;points=[[0,0.5],[1,0.5]];portConstraint=eastwest;whiteSpace=wrap;html=1;" parent="7Pb95gC22IqxMszWxWb3-9" vertex="1">
          <mxGeometry y="26" width="160" height="26" as="geometry" />
        </mxCell>
        <mxCell id="7Pb95gC22IqxMszWxWb3-28" value="member : Member" style="text;strokeColor=none;fillColor=none;align=left;verticalAlign=top;spacingLeft=4;spacingRight=4;overflow=hidden;rotatable=0;points=[[0,0.5],[1,0.5]];portConstraint=eastwest;whiteSpace=wrap;html=1;" parent="7Pb95gC22IqxMszWxWb3-9" vertex="1">
          <mxGeometry y="52" width="160" height="26" as="geometry" />
        </mxCell>
        <mxCell id="7Pb95gC22IqxMszWxWb3-46" value="dateLoan : Date" style="text;strokeColor=none;fillColor=none;align=left;verticalAlign=top;spacingLeft=4;spacingRight=4;overflow=hidden;rotatable=0;points=[[0,0.5],[1,0.5]];portConstraint=eastwest;whiteSpace=wrap;html=1;" parent="7Pb95gC22IqxMszWxWb3-9" vertex="1">
          <mxGeometry y="78" width="160" height="26" as="geometry" />
        </mxCell>
        <mxCell id="7Pb95gC22IqxMszWxWb3-47" value="returnDate : Date" style="text;strokeColor=none;fillColor=none;align=left;verticalAlign=top;spacingLeft=4;spacingRight=4;overflow=hidden;rotatable=0;points=[[0,0.5],[1,0.5]];portConstraint=eastwest;whiteSpace=wrap;html=1;" parent="7Pb95gC22IqxMszWxWb3-9" vertex="1">
          <mxGeometry y="104" width="160" height="26" as="geometry" />
        </mxCell>
        <mxCell id="7Pb95gC22IqxMszWxWb3-48" value="&amp;lt;enum&amp;gt;state : StatusLoan" style="text;strokeColor=none;fillColor=none;align=left;verticalAlign=top;spacingLeft=4;spacingRight=4;overflow=hidden;rotatable=0;points=[[0,0.5],[1,0.5]];portConstraint=eastwest;whiteSpace=wrap;html=1;" parent="7Pb95gC22IqxMszWxWb3-9" vertex="1">
          <mxGeometry y="130" width="160" height="26" as="geometry" />
        </mxCell>
        <mxCell id="7Pb95gC22IqxMszWxWb3-49" value="taxFine : Double" style="text;strokeColor=none;fillColor=none;align=left;verticalAlign=top;spacingLeft=4;spacingRight=4;overflow=hidden;rotatable=0;points=[[0,0.5],[1,0.5]];portConstraint=eastwest;whiteSpace=wrap;html=1;" parent="7Pb95gC22IqxMszWxWb3-9" vertex="1">
          <mxGeometry y="156" width="160" height="26" as="geometry" />
        </mxCell>
        <mxCell id="7Pb95gC22IqxMszWxWb3-11" value="" style="line;strokeWidth=1;fillColor=none;align=left;verticalAlign=middle;spacingTop=-1;spacingLeft=3;spacingRight=3;rotatable=0;labelPosition=right;points=[];portConstraint=eastwest;strokeColor=inherit;" parent="7Pb95gC22IqxMszWxWb3-9" vertex="1">
          <mxGeometry y="182" width="160" height="8" as="geometry" />
        </mxCell>
        <mxCell id="7Pb95gC22IqxMszWxWb3-12" value="+ method(type): type" style="text;strokeColor=none;fillColor=none;align=left;verticalAlign=top;spacingLeft=4;spacingRight=4;overflow=hidden;rotatable=0;points=[[0,0.5],[1,0.5]];portConstraint=eastwest;whiteSpace=wrap;html=1;" parent="7Pb95gC22IqxMszWxWb3-9" vertex="1">
          <mxGeometry y="190" width="160" height="26" as="geometry" />
        </mxCell>
        <mxCell id="7Pb95gC22IqxMszWxWb3-19" value="1" style="text;html=1;align=center;verticalAlign=middle;resizable=0;points=[];autosize=1;strokeColor=none;fillColor=none;" parent="1" vertex="1">
          <mxGeometry x="175" y="140" width="30" height="30" as="geometry" />
        </mxCell>
        <mxCell id="7Pb95gC22IqxMszWxWb3-20" value="-member" style="text;html=1;align=center;verticalAlign=middle;resizable=0;points=[];autosize=1;strokeColor=none;fillColor=none;" parent="1" vertex="1">
          <mxGeometry x="140" y="170" width="70" height="30" as="geometry" />
        </mxCell>
        <mxCell id="7Pb95gC22IqxMszWxWb3-21" value="0.1" style="text;html=1;align=center;verticalAlign=middle;resizable=0;points=[];autosize=1;strokeColor=none;fillColor=none;" parent="1" vertex="1">
          <mxGeometry x="-30" y="140" width="40" height="30" as="geometry" />
        </mxCell>
        <mxCell id="7Pb95gC22IqxMszWxWb3-22" value="-loan" style="text;html=1;align=center;verticalAlign=middle;resizable=0;points=[];autosize=1;strokeColor=none;fillColor=none;" parent="1" vertex="1">
          <mxGeometry x="-30" y="170" width="50" height="30" as="geometry" />
        </mxCell>
        <mxCell id="7Pb95gC22IqxMszWxWb3-38" value="" style="endArrow=none;startArrow=none;endFill=0;startFill=0;endSize=8;html=1;verticalAlign=bottom;labelBackgroundColor=none;strokeWidth=3;rounded=0;" parent="1" source="7Pb95gC22IqxMszWxWb3-9" target="7Pb95gC22IqxMszWxWb3-5" edge="1">
          <mxGeometry width="160" relative="1" as="geometry">
            <mxPoint x="30" y="120" as="sourcePoint" />
            <mxPoint x="160" y="159" as="targetPoint" />
          </mxGeometry>
        </mxCell>
        <mxCell id="7Pb95gC22IqxMszWxWb3-39" value="" style="endArrow=none;startArrow=none;endFill=0;startFill=0;endSize=8;html=1;verticalAlign=bottom;labelBackgroundColor=none;strokeWidth=3;rounded=0;" parent="1" source="7Pb95gC22IqxMszWxWb3-9" target="tzJuCF-FU3qU-iTJl4F9-1" edge="1">
          <mxGeometry width="160" relative="1" as="geometry">
            <mxPoint x="-50" y="276" as="sourcePoint" />
            <mxPoint x="180" y="274" as="targetPoint" />
          </mxGeometry>
        </mxCell>
        <mxCell id="7Pb95gC22IqxMszWxWb3-45" value="" style="endArrow=none;startArrow=none;endFill=0;startFill=0;endSize=8;html=1;verticalAlign=bottom;labelBackgroundColor=none;strokeWidth=3;rounded=0;" parent="1" source="tzJuCF-FU3qU-iTJl4F9-1" target="7Pb95gC22IqxMszWxWb3-1" edge="1">
          <mxGeometry width="160" relative="1" as="geometry">
            <mxPoint x="-5.420000000000016" y="534" as="sourcePoint" />
            <mxPoint x="-5.420000000000016" y="636" as="targetPoint" />
          </mxGeometry>
        </mxCell>
        <mxCell id="7Pb95gC22IqxMszWxWb3-50" value="1.*" style="text;html=1;align=center;verticalAlign=middle;resizable=0;points=[];autosize=1;strokeColor=none;fillColor=none;" parent="1" vertex="1">
          <mxGeometry x="-155" y="533" width="40" height="30" as="geometry" />
        </mxCell>
        <mxCell id="7Pb95gC22IqxMszWxWb3-51" value="- book" style="text;html=1;align=center;verticalAlign=middle;resizable=0;points=[];autosize=1;strokeColor=none;fillColor=none;" parent="1" vertex="1">
          <mxGeometry x="-110" y="533" width="60" height="30" as="geometry" />
        </mxCell>
        <mxCell id="7Pb95gC22IqxMszWxWb3-52" value="1.*" style="text;html=1;align=center;verticalAlign=middle;resizable=0;points=[];autosize=1;strokeColor=none;fillColor=none;" parent="1" vertex="1">
          <mxGeometry x="-150" y="286" width="40" height="30" as="geometry" />
        </mxCell>
        <mxCell id="7Pb95gC22IqxMszWxWb3-53" value="-loan" style="text;html=1;align=center;verticalAlign=middle;resizable=0;points=[];autosize=1;strokeColor=none;fillColor=none;" parent="1" vertex="1">
          <mxGeometry x="-110" y="286" width="50" height="30" as="geometry" />
        </mxCell>
        <mxCell id="7Pb95gC22IqxMszWxWb3-57" value="1" style="text;html=1;align=center;verticalAlign=middle;resizable=0;points=[];autosize=1;strokeColor=none;fillColor=none;" parent="1" vertex="1">
          <mxGeometry x="70" y="631" width="30" height="30" as="geometry" />
        </mxCell>
        <mxCell id="7Pb95gC22IqxMszWxWb3-58" value="- autor" style="text;html=1;align=center;verticalAlign=middle;resizable=0;points=[];autosize=1;strokeColor=none;fillColor=none;" parent="1" vertex="1">
          <mxGeometry x="40" y="661" width="60" height="30" as="geometry" />
        </mxCell>
        <mxCell id="7Pb95gC22IqxMszWxWb3-59" value="1.*" style="text;html=1;align=center;verticalAlign=middle;resizable=0;points=[];autosize=1;strokeColor=none;fillColor=none;" parent="1" vertex="1">
          <mxGeometry x="-30" y="629" width="40" height="30" as="geometry" />
        </mxCell>
        <mxCell id="7Pb95gC22IqxMszWxWb3-60" value="- book" style="text;html=1;align=center;verticalAlign=middle;resizable=0;points=[];autosize=1;strokeColor=none;fillColor=none;" parent="1" vertex="1">
          <mxGeometry x="-30" y="659" width="60" height="30" as="geometry" />
        </mxCell>
        <mxCell id="7Pb95gC22IqxMszWxWb3-90" value="&amp;lt;&amp;lt;&amp;lt;Interface&amp;gt;&amp;gt;&amp;gt;&amp;nbsp;&lt;div&gt;BookServices&lt;/div&gt;" style="swimlane;fontStyle=0;childLayout=stackLayout;horizontal=1;startSize=26;fillColor=none;horizontalStack=0;resizeParent=1;resizeParentMax=0;resizeLast=0;collapsible=1;marginBottom=0;whiteSpace=wrap;html=1;" parent="1" vertex="1">
          <mxGeometry x="480" y="91" width="140" height="154" as="geometry" />
        </mxCell>
        <mxCell id="7Pb95gC22IqxMszWxWb3-91" value="registerBook() : void" style="text;strokeColor=none;fillColor=none;align=left;verticalAlign=top;spacingLeft=4;spacingRight=4;overflow=hidden;rotatable=0;points=[[0,0.5],[1,0.5]];portConstraint=eastwest;whiteSpace=wrap;html=1;" parent="7Pb95gC22IqxMszWxWb3-90" vertex="1">
          <mxGeometry y="26" width="140" height="26" as="geometry" />
        </mxCell>
        <mxCell id="7Pb95gC22IqxMszWxWb3-92" value="sourchBook(String title) : Book&amp;nbsp;" style="text;strokeColor=none;fillColor=none;align=left;verticalAlign=top;spacingLeft=4;spacingRight=4;overflow=hidden;rotatable=0;points=[[0,0.5],[1,0.5]];portConstraint=eastwest;whiteSpace=wrap;html=1;" parent="7Pb95gC22IqxMszWxWb3-90" vertex="1">
          <mxGeometry y="52" width="140" height="38" as="geometry" />
        </mxCell>
        <mxCell id="M8pgYPbENfPe2T3QujUm-2" value="loanBook(Book book) : Book&amp;nbsp;" style="text;strokeColor=none;fillColor=none;align=left;verticalAlign=top;spacingLeft=4;spacingRight=4;overflow=hidden;rotatable=0;points=[[0,0.5],[1,0.5]];portConstraint=eastwest;whiteSpace=wrap;html=1;" parent="7Pb95gC22IqxMszWxWb3-90" vertex="1">
          <mxGeometry y="90" width="140" height="38" as="geometry" />
        </mxCell>
        <mxCell id="7Pb95gC22IqxMszWxWb3-99" value="loanReturn() : void" style="text;strokeColor=none;fillColor=none;align=left;verticalAlign=top;spacingLeft=4;spacingRight=4;overflow=hidden;rotatable=0;points=[[0,0.5],[1,0.5]];portConstraint=eastwest;whiteSpace=wrap;html=1;" parent="7Pb95gC22IqxMszWxWb3-90" vertex="1">
          <mxGeometry y="128" width="140" height="26" as="geometry" />
        </mxCell>
        <mxCell id="7Pb95gC22IqxMszWxWb3-94" value="" style="endArrow=block;dashed=1;endFill=0;endSize=12;html=1;rounded=0;" parent="1" source="7Pb95gC22IqxMszWxWb3-5" target="7Pb95gC22IqxMszWxWb3-90" edge="1">
          <mxGeometry width="160" relative="1" as="geometry">
            <mxPoint x="350" y="316" as="sourcePoint" />
            <mxPoint x="510" y="316" as="targetPoint" />
          </mxGeometry>
        </mxCell>
        <mxCell id="7Pb95gC22IqxMszWxWb3-95" value="&amp;lt;&amp;lt;&amp;lt;Enum&amp;gt;&amp;gt;&amp;gt;&lt;div&gt;StatusLoan&lt;/div&gt;" style="swimlane;fontStyle=0;childLayout=stackLayout;horizontal=1;startSize=26;fillColor=none;horizontalStack=0;resizeParent=1;resizeParentMax=0;resizeLast=0;collapsible=1;marginBottom=0;whiteSpace=wrap;html=1;" parent="1" vertex="1">
          <mxGeometry x="430" y="594" width="140" height="104" as="geometry" />
        </mxCell>
        <mxCell id="7Pb95gC22IqxMszWxWb3-96" value="Status : ATIVO," style="text;strokeColor=none;fillColor=none;align=left;verticalAlign=top;spacingLeft=4;spacingRight=4;overflow=hidden;rotatable=0;points=[[0,0.5],[1,0.5]];portConstraint=eastwest;whiteSpace=wrap;html=1;" parent="7Pb95gC22IqxMszWxWb3-95" vertex="1">
          <mxGeometry y="26" width="140" height="26" as="geometry" />
        </mxCell>
        <mxCell id="7Pb95gC22IqxMszWxWb3-97" value="Status : CONCLUIDO,&amp;nbsp;" style="text;strokeColor=none;fillColor=none;align=left;verticalAlign=top;spacingLeft=4;spacingRight=4;overflow=hidden;rotatable=0;points=[[0,0.5],[1,0.5]];portConstraint=eastwest;whiteSpace=wrap;html=1;" parent="7Pb95gC22IqxMszWxWb3-95" vertex="1">
          <mxGeometry y="52" width="140" height="26" as="geometry" />
        </mxCell>
        <mxCell id="7Pb95gC22IqxMszWxWb3-98" value="Status : ATRASADO" style="text;strokeColor=none;fillColor=none;align=left;verticalAlign=top;spacingLeft=4;spacingRight=4;overflow=hidden;rotatable=0;points=[[0,0.5],[1,0.5]];portConstraint=eastwest;whiteSpace=wrap;html=1;" parent="7Pb95gC22IqxMszWxWb3-95" vertex="1">
          <mxGeometry y="78" width="140" height="26" as="geometry" />
        </mxCell>
        <mxCell id="7Pb95gC22IqxMszWxWb3-105" value="Pessoa" style="swimlane;fontStyle=1;align=center;verticalAlign=top;childLayout=stackLayout;horizontal=1;startSize=26;horizontalStack=0;resizeParent=1;resizeParentMax=0;resizeLast=0;collapsible=1;marginBottom=0;whiteSpace=wrap;html=1;" parent="1" vertex="1">
          <mxGeometry x="100" y="370" width="160" height="60" as="geometry" />
        </mxCell>
        <mxCell id="7Pb95gC22IqxMszWxWb3-106" value="name : String" style="text;strokeColor=none;fillColor=none;align=left;verticalAlign=top;spacingLeft=4;spacingRight=4;overflow=hidden;rotatable=0;points=[[0,0.5],[1,0.5]];portConstraint=eastwest;whiteSpace=wrap;html=1;" parent="7Pb95gC22IqxMszWxWb3-105" vertex="1">
          <mxGeometry y="26" width="160" height="26" as="geometry" />
        </mxCell>
        <mxCell id="7Pb95gC22IqxMszWxWb3-107" value="" style="line;strokeWidth=1;fillColor=none;align=left;verticalAlign=middle;spacingTop=-1;spacingLeft=3;spacingRight=3;rotatable=0;labelPosition=right;points=[];portConstraint=eastwest;strokeColor=inherit;" parent="7Pb95gC22IqxMszWxWb3-105" vertex="1">
          <mxGeometry y="52" width="160" height="8" as="geometry" />
        </mxCell>
        <mxCell id="7Pb95gC22IqxMszWxWb3-115" value="&amp;lt;&amp;lt;&amp;lt;Interface&amp;gt;&amp;gt;&amp;gt;&amp;nbsp;&lt;div&gt;Report&lt;/div&gt;" style="swimlane;fontStyle=0;childLayout=stackLayout;horizontal=1;startSize=26;fillColor=none;horizontalStack=0;resizeParent=1;resizeParentMax=0;resizeLast=0;collapsible=1;marginBottom=0;whiteSpace=wrap;html=1;" parent="1" vertex="1">
          <mxGeometry x="220" y="-210" width="140" height="146" as="geometry" />
        </mxCell>
        <mxCell id="7Pb95gC22IqxMszWxWb3-120" value="generateReport(Loan loan) : loan.toString" style="text;strokeColor=none;fillColor=none;align=left;verticalAlign=top;spacingLeft=4;spacingRight=4;overflow=hidden;rotatable=0;points=[[0,0.5],[1,0.5]];portConstraint=eastwest;whiteSpace=wrap;html=1;" parent="7Pb95gC22IqxMszWxWb3-115" vertex="1">
          <mxGeometry y="26" width="140" height="34" as="geometry" />
        </mxCell>
        <mxCell id="7Pb95gC22IqxMszWxWb3-119" value="generateReport(Member member) : member.toString" style="text;strokeColor=none;fillColor=none;align=left;verticalAlign=top;spacingLeft=4;spacingRight=4;overflow=hidden;rotatable=0;points=[[0,0.5],[1,0.5]];portConstraint=eastwest;whiteSpace=wrap;html=1;" parent="7Pb95gC22IqxMszWxWb3-115" vertex="1">
          <mxGeometry y="60" width="140" height="50" as="geometry" />
        </mxCell>
        <mxCell id="7Pb95gC22IqxMszWxWb3-122" value="generateReport(Book book) : book.toString" style="text;strokeColor=none;fillColor=none;align=left;verticalAlign=top;spacingLeft=4;spacingRight=4;overflow=hidden;rotatable=0;points=[[0,0.5],[1,0.5]];portConstraint=eastwest;whiteSpace=wrap;html=1;" parent="7Pb95gC22IqxMszWxWb3-115" vertex="1">
          <mxGeometry y="110" width="140" height="36" as="geometry" />
        </mxCell>
        <mxCell id="7Pb95gC22IqxMszWxWb3-121" value="" style="endArrow=block;dashed=1;endFill=0;endSize=12;html=1;rounded=0;exitX=0.5;exitY=0;exitDx=0;exitDy=0;" parent="1" source="7Pb95gC22IqxMszWxWb3-5" target="7Pb95gC22IqxMszWxWb3-115" edge="1">
          <mxGeometry width="160" relative="1" as="geometry">
            <mxPoint x="280" y="-10" as="sourcePoint" />
            <mxPoint x="500" y="-25" as="targetPoint" />
          </mxGeometry>
        </mxCell>
        <mxCell id="qPAo3FMJVFCdn91AauOq-3" value="" style="edgeStyle=orthogonalEdgeStyle;rounded=0;orthogonalLoop=1;jettySize=auto;html=1;" edge="1" parent="1" source="qPAo3FMJVFCdn91AauOq-1" target="qPAo3FMJVFCdn91AauOq-2">
          <mxGeometry relative="1" as="geometry" />
        </mxCell>
        <mxCell id="qPAo3FMJVFCdn91AauOq-1" value="Member" style="shape=umlActor;verticalLabelPosition=bottom;verticalAlign=top;html=1;" vertex="1" parent="1">
          <mxGeometry x="-380" y="900" width="30" height="60" as="geometry" />
        </mxCell>
        <mxCell id="qPAo3FMJVFCdn91AauOq-2" value="Loan" style="whiteSpace=wrap;html=1;verticalAlign=top;" vertex="1" parent="1">
          <mxGeometry x="-275" y="900" width="120" height="60" as="geometry" />
        </mxCell>
      </root>
    </mxGraphModel>
  </diagram>
</mxfile>
